<svg class="header-social-svg" viewBox="0 0 20 14" xmlns="http://www.w3.org/2000/svg"><title>twitter-outline</title><path d="M14.786.075a.47.47 0 0 0-.515.004L.21 9.454a.467.467 0 0 0-.206.438c.018.173.13.323.292.387l3.667 1.467 1.725 3.018a.468.468 0 0 0 .402.236h.005a.47.47 0 0 0 .401-.227l.974-1.624 4.545 1.818a.463.463 0 0 0 .403-.027.47.47 0 0 0 .233-.332L14.993.546a.47.47 0 0 0-.207-.471zM1.47 9.739l10.863-7.242-7.898 8.454c-.042-.024-.079-.057-.125-.076L1.47 9.74zm3.306 1.542c0-.002-.002-.003-.003-.005l8.88-9.504-7.57 11.795-1.307-2.286zm7.044 2.598l-4.003-1.601a.931.931 0 0 0-.292-.056l6.165-9.557-1.87 11.214z" class="icon-fill" fill="#363636" fill-rule="evenodd"></path></svg>